// ============================================================================
// File:    song.c
// Author:  Recep Seymen Konuk <konukrecepseymen@gmail.com>
//
// Licensed under the terms of the LICENSE file in the project root directory.
// ============================================================================

#include "song.h"

#include "pitches.h"

const uint8_t songTempo = 250;

// clang-format off
const Note songNotes[] = {
    {NOTE_FS4, NOTE_EIGHTH},
    {NOTE_NONE, NOTE_SIXTEENTH},
    {NOTE_FS4, NOTE_EIGHTH},
    {NOTE_NONE, NOTE_SIXTEENTH},
    {NOTE_FS4, NOTE_EIGHTH},
    {NOTE_NONE, NOTE_SIXTEENTH},
    {NOTE_D4, NOTE_EIGHTH},
    {NOTE_NONE, NOTE_QUARTER},
    {NOTE_B3, NOTE_EIGHTH},
    {NOTE_NONE, NOTE_QUARTER},
    {NOTE_E4, NOTE_EIGHTH},
    {NOTE_NONE, NOTE_QUARTER},
    {NOTE_E4, NOTE_EIGHTH},
    {NOTE_NONE, NOTE_QUARTER},
    {NOTE_E4, NOTE_EIGHTH},
    {NOTE_NONE, NOTE_SIXTEENTH},
    {NOTE_GS4, NOTE_EIGHTH},
    {NOTE_NONE, NOTE_SIXTEENTH},
    {NOTE_GS4, NOTE_EIGHTH},
    {NOTE_NONE, NOTE_SIXTEENTH},
    {NOTE_A4, NOTE_EIGHTH},
    {NOTE_NONE, NOTE_SIXTEENTH},
    {NOTE_B4, NOTE_EIGHTH},
    {NOTE_NONE, NOTE_SIXTEENTH},
    {NOTE_A4, NOTE_EIGHTH},
    {NOTE_NONE, NOTE_SIXTEENTH},
    {NOTE_A4, NOTE_EIGHTH},
    {NOTE_NONE, NOTE_SIXTEENTH},
    {NOTE_A4, NOTE_EIGHTH},
    {NOTE_NONE, NOTE_SIXTEENTH},
    {NOTE_E4, NOTE_EIGHTH},
    {NOTE_NONE, NOTE_QUARTER},
    {NOTE_D4, NOTE_EIGHTH},
    {NOTE_NONE, NOTE_QUARTER},
    {NOTE_FS4, NOTE_EIGHTH},
    {NOTE_NONE, NOTE_QUARTER},
    {NOTE_FS4, NOTE_EIGHTH},
    {NOTE_NONE, NOTE_QUARTER},
    {NOTE_FS4, NOTE_EIGHTH},
    {NOTE_NONE, NOTE_SIXTEENTH},
    {NOTE_E4, NOTE_EIGHTH},
    {NOTE_NONE, NOTE_SIXTEENTH},
    {NOTE_E4, NOTE_EIGHTH},
    {NOTE_NONE, NOTE_SIXTEENTH},
    {NOTE_FS4, NOTE_EIGHTH},
    {NOTE_NONE, NOTE_SIXTEENTH},
    {NOTE_E4, NOTE_EIGHTH},
    {NOTE_NONE, NOTE_SIXTEENTH},
    {NOTE_FS4, NOTE_EIGHTH},
    {NOTE_NONE, NOTE_SIXTEENTH},
    {NOTE_FS4, NOTE_EIGHTH},
    {NOTE_NONE, NOTE_SIXTEENTH},
    {NOTE_D4, NOTE_EIGHTH},
    {NOTE_NONE, NOTE_SIXTEENTH},
    {NOTE_B3, NOTE_EIGHTH},
    {NOTE_NONE, NOTE_QUARTER},
    {NOTE_B3, NOTE_EIGHTH},
    {NOTE_NONE, NOTE_QUARTER},
    {NOTE_E4, NOTE_EIGHTH},
    {NOTE_NONE, NOTE_QUARTER},
    {NOTE_E4, NOTE_EIGHTH},
    {NOTE_NONE, NOTE_QUARTER},
    {NOTE_E4, NOTE_EIGHTH},
    {NOTE_NONE, NOTE_SIXTEENTH},
    {NOTE_GS4, NOTE_EIGHTH},
    {NOTE_NONE, NOTE_SIXTEENTH},
    {NOTE_GS4, NOTE_EIGHTH},
    {NOTE_NONE, NOTE_SIXTEENTH},
    {NOTE_A4, NOTE_EIGHTH},
    {NOTE_NONE, NOTE_SIXTEENTH},
    {NOTE_B4, NOTE_EIGHTH},
    {NOTE_NONE, NOTE_SIXTEENTH},
    {NOTE_A4, NOTE_EIGHTH},
    {NOTE_NONE, NOTE_SIXTEENTH},
    {NOTE_A4, NOTE_EIGHTH},
    {NOTE_NONE, NOTE_SIXTEENTH},
    {NOTE_A4, NOTE_EIGHTH},
    {NOTE_NONE, NOTE_SIXTEENTH},
    {NOTE_E4, NOTE_EIGHTH},
    {NOTE_NONE, NOTE_QUARTER},
    {NOTE_D4, NOTE_EIGHTH},
    {NOTE_NONE, NOTE_QUARTER},
    {NOTE_FS4, NOTE_EIGHTH},
    {NOTE_NONE, NOTE_QUARTER},
    {NOTE_FS4, NOTE_EIGHTH},
    {NOTE_NONE, NOTE_QUARTER},
    {NOTE_FS4, NOTE_EIGHTH},
    {NOTE_NONE, NOTE_SIXTEENTH},
    {NOTE_E4, NOTE_EIGHTH},
    {NOTE_NONE, NOTE_SIXTEENTH},
    {NOTE_E4, NOTE_EIGHTH},
    {NOTE_NONE, NOTE_SIXTEENTH},
    {NOTE_FS4, NOTE_EIGHTH},
    {NOTE_NONE, NOTE_SIXTEENTH},
    {NOTE_E4, NOTE_EIGHTH},
};

const uint32_t songLength = sizeof(songNotes) / sizeof(songNotes[0]);
